<svg width="73" height="63" viewBox="0 0 73 63" fill="none" xmlns="http://www.w3.org/2000/svg">
<path d="M72.6035 31.2378C72.5187 25.211 70.4584 19.3307 66.6657 14.2896C62.8729 9.24858 57.5059 5.25661 51.1965 2.78391C44.8865 0.311216 37.8973 -0.539227 31.0514 0.332683C24.2057 1.20463 17.7884 3.7626 12.5554 7.70547C7.32239 11.6483 3.49164 16.8118 1.51426 22.5877C-0.463084 28.3637 -0.504742 34.5116 1.39427 40.3076C3.29329 46.1036 7.05384 51.3058 12.2331 55.3022C17.4123 59.2987 23.7945 61.9225 30.628 62.8646V40.4491H21.5523V31.2378H30.628V24.2404C30.4179 22.6135 30.6203 20.9661 31.2211 19.4146C31.8219 17.8632 32.8062 16.4455 34.1045 15.2617C35.4028 14.0778 36.9833 13.1566 38.735 12.5632C40.4866 11.9697 42.3666 11.7184 44.2417 11.827C46.9635 11.8595 49.679 12.071 52.3645 12.4596V20.3663H47.8266C47.0443 20.2803 46.2492 20.3486 45.5014 20.5661C44.7531 20.7837 44.0706 21.1449 43.5043 21.6231C42.9379 22.1013 42.5023 22.6843 42.2296 23.3288C41.9564 23.9736 41.8534 24.6634 41.9274 25.3474V31.3169H52.0015L50.3678 40.5282H41.9727V62.6669C50.5489 61.4853 58.355 57.6648 63.9747 51.8984C69.5944 46.1321 72.6557 38.8022 72.6035 31.2378Z" fill="white"/>
</svg>
