<svg width="73" height="63" viewBox="0 0 73 63" fill="none" xmlns="http://www.w3.org/2000/svg">
<path fill-rule="evenodd" clip-rule="evenodd" d="M36.3022 47.1481C46.3267 47.1481 54.4532 40.1117 54.4532 31.432C54.4532 22.7522 46.3267 15.7158 36.3022 15.7158C26.2776 15.7158 18.1511 22.7522 18.1511 31.432C18.1511 40.1117 26.2776 47.1481 36.3022 47.1481ZM36.3022 41.9094C42.9851 41.9094 48.4029 37.2184 48.4029 31.432C48.4029 25.6454 42.9851 20.9545 36.3022 20.9545C29.6191 20.9545 24.2015 25.6454 24.2015 31.432C24.2015 37.2184 29.6191 41.9094 36.3022 41.9094Z" fill="white"/>
<path d="M54.4532 13.0966C52.7823 13.0966 51.428 14.2693 51.428 15.7159C51.428 17.1625 52.7823 18.3353 54.4532 18.3353C56.124 18.3353 57.4783 17.1625 57.4783 15.7159C57.4783 14.2693 56.124 13.0966 54.4532 13.0966Z" fill="white"/>
<path fill-rule="evenodd" clip-rule="evenodd" d="M5.00349 11.2002C3.02515 14.5621 3.02515 18.963 3.02515 27.7649V35.099C3.02515 43.9009 3.02515 48.3019 5.00349 51.6636C6.74369 54.6209 9.52044 57.0252 12.9358 58.5318C16.8185 60.2449 21.9013 60.2449 32.0668 60.2449H40.5373C50.7028 60.2449 55.7857 60.2449 59.6682 58.5318C63.0836 57.0252 65.8604 54.6209 67.6005 51.6636C69.579 48.3019 69.579 43.9009 69.579 35.099V27.7649C69.579 18.963 69.579 14.5621 67.6005 11.2002C65.8604 8.24299 63.0836 5.83873 59.6682 4.33197C55.7857 2.61902 50.7028 2.61902 40.5373 2.61902H32.0668C21.9013 2.61902 16.8185 2.61902 12.9358 4.33197C9.52044 5.83873 6.74369 8.24299 5.00349 11.2002ZM40.5373 7.85773H32.0668C26.8842 7.85773 23.3611 7.86182 20.6379 8.05445C17.9854 8.2421 16.6289 8.58222 15.6826 8.99969C13.4057 10.0042 11.5545 11.6071 10.3944 13.5785C9.91223 14.3979 9.51941 15.5724 9.30268 17.8691C9.08021 20.227 9.07549 23.2775 9.07549 27.7649V35.099C9.07549 39.5865 9.08021 42.6368 9.30268 44.9947C9.51941 47.2916 9.91223 48.4662 10.3944 49.2855C11.5545 51.2568 13.4057 52.8596 15.6826 53.8641C16.6289 54.2817 17.9854 54.6219 20.6379 54.8095C23.3611 55.002 26.8842 55.0062 32.0668 55.0062H40.5373C45.72 55.0062 49.2428 55.002 51.9661 54.8095C54.6189 54.6219 55.9754 54.2817 56.9216 53.8641C59.1984 52.8596 61.0495 51.2568 62.2096 49.2855C62.6918 48.4662 63.0848 47.2916 63.3014 44.9947C63.5238 42.6368 63.5286 39.5865 63.5286 35.099V27.7649C63.5286 23.2775 63.5238 20.227 63.3014 17.8691C63.0848 15.5724 62.6918 14.3979 62.2096 13.5785C61.0495 11.6071 59.1984 10.0042 56.9216 8.99969C55.9754 8.58222 54.6189 8.2421 51.9661 8.05445C49.2428 7.86182 45.72 7.85773 40.5373 7.85773Z" fill="white"/>
</svg>
