<svg width="73" height="63" viewBox="0 0 73 63" fill="none" xmlns="http://www.w3.org/2000/svg">
<path d="M38.1324 0.0524118C42.6935 1.99153e-07 47.2212 0.027254 51.7461 0C51.8966 4.25792 54.1925 8.09026 57.8453 10.9289L57.8397 10.9247C61.7711 13.5893 66.8867 15.3168 72.5261 15.6103L72.6042 15.6145V26.1723C67.2768 26.0716 62.2671 25.1471 57.7505 23.558L57.979 23.6293C55.7946 22.8389 53.9473 22.0276 52.1919 21.1219L52.3368 21.1932C52.3034 28.8432 52.3702 36.4932 52.2671 44.1159C51.9802 48.0007 50.2638 51.5437 47.511 54.5018L47.5667 54.4368C42.9638 59.397 35.5077 62.6528 27.0291 62.8457H26.9901C26.6473 62.8583 26.2433 62.8646 25.8365 62.8646C21.0163 62.8646 16.5109 61.8541 12.6714 60.0993L12.7828 60.1476C5.79487 56.984 0.974616 51.5709 0.083008 45.2752L0.071863 45.1893C0.00220618 43.879 -0.0312293 42.5687 0.0384275 41.2857C1.4037 31.2667 12.5599 23.516 26.1207 23.516C27.6448 23.516 29.1383 23.6146 30.5899 23.8012L30.4339 23.7844C30.5036 27.6608 30.2946 31.5392 30.2946 35.4156C29.116 35.0948 27.7563 34.9082 26.3381 34.9082C21.1333 34.9082 16.7059 37.4114 15.0676 40.9062L15.0425 40.9691C14.6719 41.8643 14.4574 42.8937 14.4574 43.9587C14.4574 44.3905 14.4936 44.8182 14.5605 45.2375L14.5549 45.1872C15.48 49.4766 20.3671 52.7135 26.2601 52.7135C26.43 52.7135 26.5972 52.7114 26.7644 52.7051H26.7393C30.8156 52.6129 34.3542 50.963 36.3547 48.5248L36.3826 48.487C37.1265 47.7071 37.6364 46.7637 37.8064 45.7386L37.8092 45.7092C38.1575 41.0194 38.0181 36.3569 38.0516 31.6671C38.085 21.1093 38.0181 10.5767 38.1212 0.0461224L38.1324 0.0524118Z" fill="white"/>
</svg>
