<svg width="73" height="63" viewBox="0 0 73 63" fill="none" xmlns="http://www.w3.org/2000/svg">
<g clip-path="url(#clip0_147_36)">
<path fill-rule="evenodd" clip-rule="evenodd" d="M57.4336 44.3855C56.5587 46.5298 53.0809 48.3037 50.3074 48.8225C48.4088 49.1715 45.933 49.4476 37.5908 46.4543C28.2212 43.0932 15.2106 31.1207 15.2106 23.1533C15.2106 19.0973 17.9114 14.3744 22.6344 14.3744C24.9069 14.3744 25.4078 14.4128 26.1557 15.9659C27.0305 17.7959 29.1651 22.3044 29.4192 22.7666C30.4684 24.6625 28.3519 25.7724 26.8163 27.4231C26.3262 27.9198 25.7709 28.4571 26.3916 29.3815C27.0088 30.287 29.1433 33.2992 32.2798 35.717C36.3311 38.8423 39.6165 39.8401 40.7926 40.2646C41.6675 40.579 42.713 40.5058 43.352 39.9147C44.1615 39.1569 45.167 37.8997 46.1908 36.6609C46.9132 35.7742 47.8317 35.6635 48.7937 35.9779C49.4435 36.1729 57.7022 39.4938 58.0507 40.0252C58.3084 40.4119 58.3085 42.2411 57.4336 44.3855ZM36.3093 -0.000366211H36.2912C16.2778 -0.000366211 0 14.0981 0 31.4319C0 38.3051 2.55932 44.6817 6.91194 49.8539L2.38869 61.5336L16.3396 57.6736C22.079 60.9624 28.9291 62.8642 36.3093 62.8642C56.3227 62.8642 72.6042 48.7657 72.6042 31.4319C72.6042 14.0981 56.3227 -0.000366211 36.3093 -0.000366211Z" fill="white"/>
</g>
<defs>
<clipPath id="clip0_147_36">
<rect width="72.6042" height="62.8646" fill="white"/>
</clipPath>
</defs>
</svg>
