<svg width="71" height="71" viewBox="0 0 71 71" fill="none" xmlns="http://www.w3.org/2000/svg">
<path d="M30.9896 61.9792C33.4346 61.9792 35.4167 59.9972 35.4167 57.5521C35.4167 55.1071 33.4346 53.1251 30.9896 53.1251C28.5446 53.1251 26.5625 55.1071 26.5625 57.5521C26.5625 59.9972 28.5446 61.9792 30.9896 61.9792Z" fill="white"/>
<path d="M51.6493 61.9792C54.0943 61.9792 56.0763 59.9972 56.0763 57.5521C56.0763 55.1071 54.0943 53.1251 51.6493 53.1251C49.2042 53.1251 47.2222 55.1071 47.2222 57.5521C47.2222 59.9972 49.2042 61.9792 51.6493 61.9792Z" fill="white"/>
<path d="M38.3681 38.3681H44.2709V29.5434H53.0955V23.6407H44.2709V14.8455H38.3681V23.6407H29.5435V29.5434H38.3681V38.3681Z" fill="white"/>
<path d="M29.5139 50.1737H53.1251C53.7196 50.172 54.2997 49.9907 54.7895 49.6536C55.2793 49.3166 55.6558 48.8395 55.8699 48.2848L64.2223 26.5626H57.9063L51.0886 44.2709H31.4914L18.2396 12.4845C17.7903 11.4074 17.0318 10.4877 16.06 9.84153C15.0882 9.19539 13.9466 8.85183 12.7796 8.85426H5.90283V14.757H12.7796L26.7987 48.3438C27.0201 48.8828 27.3961 49.3442 27.8793 49.6698C28.3625 49.9955 28.9313 50.1708 29.5139 50.1737Z" fill="white"/>
</svg>
