<svg width="71" height="72" viewBox="0 0 71 72" fill="none" xmlns="http://www.w3.org/2000/svg">
<g filter="url(#filter0_d_20_31)">
<path d="M31.0312 62.7032C33.4763 62.7032 35.4583 60.7211 35.4583 58.2761C35.4583 55.8311 33.4763 53.849 31.0312 53.849C28.5862 53.849 26.6042 55.8311 26.6042 58.2761C26.6042 60.7211 28.5862 62.7032 31.0312 62.7032Z" fill="black"/>
<path d="M51.6909 62.7032C54.1359 62.7032 56.118 60.7211 56.118 58.2761C56.118 55.8311 54.1359 53.849 51.6909 53.849C49.2459 53.849 47.2639 55.8311 47.2639 58.2761C47.2639 60.7211 49.2459 62.7032 51.6909 62.7032Z" fill="black"/>
<path d="M38.4097 39.092H44.3125V30.2674H53.1372V24.3646H44.3125V15.5695H38.4097V24.3646H29.5851V30.2674H38.4097V39.092Z" fill="black"/>
<path d="M29.5556 50.8976H53.1667C53.7612 50.8959 54.3414 50.7146 54.8311 50.3776C55.3209 50.0405 55.6974 49.5634 55.9115 49.0088L64.2639 27.2865H57.9479L51.1302 44.9949H31.533L18.2813 13.2084C17.832 12.1313 17.0735 11.2116 16.1016 10.5655C15.1298 9.91933 13.9882 9.57577 12.8212 9.5782H5.94446V15.481H12.8212L26.8403 49.0678C27.0617 49.6068 27.4377 50.0681 27.9209 50.3938C28.4041 50.7194 28.9729 50.8947 29.5556 50.8976Z" fill="black"/>
</g>
<defs>
<filter id="filter0_d_20_31" x="-3.95837" y="0.723938" width="78.8333" height="78.8333" filterUnits="userSpaceOnUse" color-interpolation-filters="sRGB">
<feFlood flood-opacity="0" result="BackgroundImageFix"/>
<feColorMatrix in="SourceAlpha" type="matrix" values="0 0 0 0 0 0 0 0 0 0 0 0 0 0 0 0 0 0 127 0" result="hardAlpha"/>
<feOffset dy="4"/>
<feGaussianBlur stdDeviation="2"/>
<feComposite in2="hardAlpha" operator="out"/>
<feColorMatrix type="matrix" values="0 0 0 0 0 0 0 0 0 0 0 0 0 0 0 0 0 0 0.25 0"/>
<feBlend mode="normal" in2="BackgroundImageFix" result="effect1_dropShadow_20_31"/>
<feBlend mode="normal" in="SourceGraphic" in2="effect1_dropShadow_20_31" result="shape"/>
</filter>
</defs>
</svg>
