<svg width="48" height="63" viewBox="0 0 48 63" fill="none" xmlns="http://www.w3.org/2000/svg">
<path d="M45.135 16.4365C46.269 15.2395 46.893 13.6498 46.893 11.9588C46.893 10.2678 46.269 8.67815 45.135 7.48115L40.377 2.45882C39.243 1.26182 37.737 0.603149 36.135 0.603149C34.533 0.603149 33.027 1.26182 31.896 2.45565L0 36.0191V50H13.239L45.135 16.4365ZM36.135 6.93648L40.896 11.9556L36.126 16.9716L31.368 11.9525L36.135 6.93648ZM6 43.6666V38.6475L27.12 16.4238L31.878 21.4461L10.761 43.6666H6ZM0 56.3333H48V62.6666H0V56.3333Z" fill="#040404"/>
</svg>
