<svg width="78" height="66" viewBox="0 0 78 66" fill="none" xmlns="http://www.w3.org/2000/svg">
<path d="M29.3586 0.358734C20.3473 2.0568 14.188 9.39912 14.6913 17.7938C15.0987 24.8252 19.844 30.589 27.2017 33.0524C28.6876 33.5307 29.3107 33.6025 32.8337 33.6025C36.6204 33.5786 36.884 33.5546 38.8732 32.8372C41.8689 31.8088 43.4507 30.7803 45.8953 28.3409C47.5489 26.7146 48.2679 25.7579 48.9629 24.3947C51.2876 19.731 51.3835 14.7564 49.2505 10.1644C45.9432 2.98953 37.4831 -1.17191 29.3586 0.358734ZM35.0386 6.95965C38.3459 7.65322 41.2219 9.85353 42.6838 12.8192C43.4507 14.3737 43.4986 14.6129 43.4986 16.9806C43.4986 19.3244 43.4507 19.5875 42.7317 21.0703C41.2219 24.1316 37.9625 26.4754 34.4155 27.0255C29.7181 27.7669 24.7571 25.2318 22.696 21.0703C21.977 19.5875 21.9291 19.3244 21.9291 16.9806C21.9291 14.6129 21.977 14.3737 22.7439 12.8192C24.9488 8.3468 30.0297 5.90733 35.0386 6.95965Z" fill="black"/>
<path d="M55.4576 32.1675C52.3181 32.8371 48.867 34.6787 46.5662 36.879L45.5836 37.8357L43.3068 37.5726C39.8077 37.166 24.3975 37.2378 21.4976 37.6682C9.94592 39.4141 1.39 47.9284 0.19169 58.9299C-0.0479714 61.1302 -0.0240053 61.4411 0.383419 62.3021C1.53379 64.6698 4.55353 65.0525 6.44686 63.0674C6.90221 62.5652 7.04601 62.0629 7.23774 60.2214C7.50137 57.3992 7.95672 55.8208 9.15503 53.5248C10.8327 50.2961 14.0921 47.2587 17.5432 45.7041C20.8745 44.1974 21.0183 44.1735 31.9708 44.0778L42.0126 43.9822L41.8449 45.0106C41.1019 50.0569 41.773 53.7161 44.1217 57.3036C45.0084 58.6668 47.0455 60.8671 48.4116 61.8955C49.7058 62.9 52.2222 64.0958 54.2833 64.7177C56.1047 65.2438 56.8956 65.3634 59.436 65.3634C62.5996 65.3873 64.1813 65.1003 66.9135 64.0002C70.6762 62.4695 73.9595 59.5996 75.6851 56.2513C79.256 49.4112 77.9139 41.9254 72.21 36.592C70.077 34.607 66.6498 32.8132 63.8218 32.1914C61.7368 31.737 57.5187 31.7131 55.4576 32.1675ZM61.7368 37.8117C67.6085 38.888 71.6588 44.5083 70.7241 50.32C69.7415 56.3469 64.0855 60.5323 58.1419 59.5756C53.3966 58.8103 49.7297 55.1989 48.867 50.4396C48.0521 45.8237 50.6404 40.8252 54.8825 38.7923C57.303 37.6443 59.2683 37.3573 61.7368 37.8117Z" fill="black"/>
<path d="M60.2699 60.813C66.9979 60.813 72.452 55.5324 72.452 49.0184C72.452 42.5044 66.9979 37.2238 60.2699 37.2238C53.542 37.2238 48.0879 42.5044 48.0879 49.0184C48.0879 55.5324 53.542 60.813 60.2699 60.813Z" fill="#00FF04" stroke="#00FF19" strokeWidth="0.8486"/>
<path d="M61.2336 47.2348C58.4774 50.2961 56.1048 52.8312 55.961 52.8312C55.8412 52.8312 55.0742 52.3529 54.3073 51.7789C53.2768 51.0136 52.6537 50.7027 52.0785 50.7027C51.6471 50.7027 51.2876 50.7744 51.2876 50.8701C51.3116 51.2527 55.7453 58.1885 55.961 58.1885C56.1527 58.1885 68.0639 41.9254 68.0639 41.6862C68.0639 41.6384 67.6565 41.6144 67.1772 41.6384C66.2904 41.6384 66.0747 41.8536 61.2336 47.2348Z" fill="black"/>
</svg>
