<svg width="78" height="66" viewBox="0 0 78 66" fill="none" xmlns="http://www.w3.org/2000/svg">
<g clip-path="url(#clip0_143_2)">
<path d="M29.7485 -0.145429C20.7853 1.49047 14.6576 8.34682 14.6576 16.6947C14.6576 24.369 20.0163 30.9607 27.9943 33.0778C29.4602 33.4868 30.6136 33.6071 32.8004 33.6071C34.9871 33.6071 36.1406 33.4868 37.6064 33.0778C45.5844 30.9607 50.9431 24.369 50.9431 16.6947C50.9431 9.06854 45.7526 2.549 37.9428 0.335719C35.9483 -0.241658 31.5989 -0.482232 29.7485 -0.145429ZM35.1073 6.68686C40.4419 7.81756 44.0465 12.3163 43.662 17.3443C43.3496 21.4821 40.3939 25.0426 36.2607 26.3417C34.3143 26.9432 31.2865 26.9432 29.34 26.3417C22.972 24.345 19.9923 17.248 23.2123 11.7389C24.582 9.40535 27.5378 7.33641 30.3733 6.71092C32.2957 6.27789 33.1848 6.27789 35.1073 6.68686Z" fill="black"/>
<path d="M56.9513 31.6344C53.2988 32.1877 49.55 33.992 47.0509 36.3737L45.6812 37.6968L43.8549 37.4081C41.0193 36.9992 23.982 37.0473 21.2666 37.5044C9.53984 39.4049 0.913014 48.3783 0.0959893 59.5169C-0.0722218 61.7783 0.14405 62.5 1.2975 63.6066C2.21064 64.4246 4.5656 64.5689 5.71904 63.8712C6.75234 63.2217 7.11279 62.2835 7.42519 59.4687C8.09803 53.3822 11.4623 48.7392 17.2775 45.8042C20.5937 44.1442 21.4107 44.048 31.96 43.9517C37.3908 43.9036 41.5961 43.9517 41.7883 44.072C42.0526 44.2645 42.0526 44.5291 41.8364 45.5395C40.6829 50.9524 43.134 57.5442 47.6757 61.2249C57.6242 69.2841 73.0035 65.3628 77.0405 53.7431C79.804 45.8282 75.9832 37.1435 68.1254 33.3906C64.8573 31.8268 60.3636 31.1292 56.9513 31.6344ZM62.5023 38.4907C64.5449 39.0922 66.0588 39.9823 67.5486 41.4017C70.9609 44.6494 71.5857 49.2684 69.2788 53.8393C68.5339 55.3068 66.5634 57.4479 65.1696 58.2418C61.8054 60.2145 57.3839 60.2145 54.0197 58.2418C52.722 57.496 50.6795 55.3549 50.0306 54.0799C48.3726 50.8321 48.3726 47.0311 50.0306 43.7833C50.6795 42.5083 52.722 40.3672 54.0197 39.6214C56.4948 38.178 59.883 37.7209 62.5023 38.4907Z" fill="black"/>
<path d="M57.3129 42.6526C55.6548 43.4225 54.7897 44.7216 54.7897 46.4296V47.2716L56.3998 47.1995C57.8175 47.1273 58.0338 47.0551 58.1059 46.6462C58.3222 45.4914 59.4516 44.9621 60.1725 45.7079C60.9415 46.4537 60.6531 47.2235 59.0911 48.691C57.7214 49.9661 57.6013 50.1345 57.4811 51.3133L57.361 52.5643L58.995 52.4921C60.581 52.4199 60.6531 52.3959 60.8213 51.7223C60.9415 51.3373 61.5903 50.5194 62.3352 49.8458C63.8491 48.4986 64.3057 47.3679 64.0413 45.6357C63.8731 44.4088 62.7677 43.0135 61.5903 42.5323C60.4849 42.0512 58.4423 42.1234 57.3129 42.6526Z" fill="black"/>
<path d="M58.2265 54.0318C57.4575 54.4167 57.073 55.4993 57.4095 56.3654C57.6978 57.0149 58.5389 57.5923 59.2358 57.5923C59.9326 57.5923 60.8698 56.4856 60.8698 55.6677C60.8698 55.0903 60.7016 54.7054 60.221 54.2964C59.5241 53.695 59.0435 53.6228 58.2265 54.0318Z" fill="black"/>
</g>
<defs>
<clipPath id="clip0_143_2">
<rect width="77.89" height="65.77" fill="white"/>
</clipPath>
</defs>
</svg>
