<?xml version="1.0" standalone="no"?>
<!DOCTYPE svg PUBLIC "-//W3C//DTD SVG 20010904//EN"
 "http://www.w3.org/TR/2001/REC-SVG-20010904/DTD/svg10.dtd">
<svg version="1.0" xmlns="http://www.w3.org/2000/svg"
 width="325.000000pt" height="275.000000pt" viewBox="0 0 325.000000 275.000000"
 preserveAspectRatio="xMidYMid meet">

<g transform="translate(0.000000,275.000000) scale(0.100000,-0.100000)"
fill="#000000" stroke="none">
<path d="M1225 2735 c-376 -71 -633 -378 -612 -729 17 -294 215 -535 522 -638
62 -20 88 -23 235 -23 158 1 169 2 252 32 125 43 191 86 293 188 69 68 99 108
128 165 97 195 101 403 12 595 -138 300 -491 474 -830 410z m237 -276 c138
-29 258 -121 319 -245 32 -65 34 -75 34 -174 0 -98 -2 -109 -32 -171 -63 -128
-199 -226 -347 -249 -196 -31 -403 75 -489 249 -30 62 -32 73 -32 171 0 99 2
109 34 174 92 187 304 289 513 245z"/>
<path d="M2314 1405 c-131 -28 -275 -105 -371 -197 l-41 -40 -95 11 c-146 17
-789 14 -910 -4 -482 -73 -839 -429 -889 -889 -10 -92 -9 -105 8 -141 48 -99
174 -115 253 -32 19 21 25 42 33 119 11 118 30 184 80 280 70 135 206 262 350
327 139 63 145 64 602 68 l419 4 -7 -43 c-31 -211 -3 -364 95 -514 37 -57 122
-149 179 -192 54 -42 159 -92 245 -118 76 -22 109 -27 215 -27 132 -1 198 11
312 57 157 64 294 184 366 324 149 286 93 599 -145 822 -89 83 -232 158 -350
184 -87 19 -263 20 -349 1z m262 -236 c245 -45 414 -280 375 -523 -41 -252
-277 -427 -525 -387 -198 32 -351 183 -387 382 -34 193 74 402 251 487 101 48
183 60 286 41z"/>
<path d="M2555 775 c-115 -128 -214 -234 -220 -234 -5 0 -37 20 -69 44 -43 32
-69 45 -93 45 -18 0 -33 -3 -33 -7 1 -16 186 -306 195 -306 8 0 505 680 505
690 0 2 -17 3 -37 2 -37 0 -46 -9 -248 -234z"/>
</g>
</svg>
